HIERARCHY
ROOT Hips
{
	OFFSET 0.00000 0.00000 0.00000
	CHANNELS 6 Xposition Yposition Zposition Zrotation Yrotation Xrotation 
	JOINT LHipJoint
	{
		OFFSET 0 0 0
		CHANNELS 3 Zrotation Yrotation Xrotation
		JOINT LeftUpLeg
		{
			OFFSET 1.75344 -1.53157 0.77399
			CHANNELS 3 Zrotation Yrotation Xrotation
			JOINT LeftLeg
			{
				OFFSET 2.25415 -6.19323 0.00000
				CHANNELS 3 Zrotation Yrotation Xrotation
				JOINT LeftFoot
				{
					OFFSET 2.30342 -6.32861 0.00000
					CHANNELS 3 Zrotation Yrotation Xrotation
					JOINT LeftToeBase
					{
						OFFSET 0.10958 -0.30108 1.49206
						CHANNELS 3 Zrotation Yrotation Xrotation
						End Site
						{
							OFFSET 0.00000 -0.00000 0.77783
						}
					}
				}
			}
		}
	}
	JOINT RHipJoint
	{
		OFFSET 0 0 0
		CHANNELS 3 Zrotation Yrotation Xrotation
		JOINT RightUpLeg
		{
			OFFSET -1.81912 -1.53156 0.77399
			CHANNELS 3 Zrotation Yrotation Xrotation
			JOINT RightLeg
			{
				OFFSET -2.22882 -6.12365 0.00000
				CHANNELS 3 Zrotation Yrotation Xrotation
				JOINT RightFoot
				{
					OFFSET -2.21943 -6.09785 0.00000
					CHANNELS 3 Zrotation Yrotation Xrotation
					JOINT RightToeBase
					{
						OFFSET -0.18931 -0.52012 1.59379
						CHANNELS 3 Zrotation Yrotation Xrotation
						End Site
						{
							OFFSET -0.00000 -0.00000 0.84686
						}
					}
				}
			}
		}
	}
	JOINT LowerBack
	{
		OFFSET 0 0 0
		CHANNELS 3 Zrotation Yrotation Xrotation
		JOINT Spine
		{
			OFFSET -0.00200 1.66634 -0.14248
			CHANNELS 3 Zrotation Yrotation Xrotation
			JOINT Spine1
			{
				OFFSET -0.00875 1.64542 0.09514
				CHANNELS 3 Zrotation Yrotation Xrotation
				JOINT Neck
				{
					OFFSET 0 0 0
					CHANNELS 3 Zrotation Yrotation Xrotation
					JOINT Neck1
					{
						OFFSET 0.02257 1.59605 0.00839
						CHANNELS 3 Zrotation Yrotation Xrotation
						JOINT Head
						{
							OFFSET -0.10214 1.57530 -0.23335
							CHANNELS 3 Zrotation Yrotation Xrotation
							End Site
							{
								OFFSET -0.03588 1.60717 -0.08062
							}
						}
					}
				}
				JOINT LeftShoulder
				{
					OFFSET 0 0 0
					CHANNELS 3 Zrotation Yrotation Xrotation
					JOINT LeftArm
					{
						OFFSET 2.54983 1.10186 0.40078
						CHANNELS 3 Zrotation Yrotation Xrotation
						JOINT LeftForeArm
						{
							OFFSET 4.28840 -0.00000 0.00000
							CHANNELS 3 Zrotation Yrotation Xrotation
							JOINT LeftHand
							{
								OFFSET 3.06552 -0.00000 -0.00000
								CHANNELS 3 Zrotation Yrotation Xrotation
								JOINT LeftFingerBase
								{
									OFFSET 0 0 0
									CHANNELS 3 Zrotation Yrotation Xrotation
									JOINT LeftHandIndex1
									{
										OFFSET 0.75304 -0.00000 0.00000
										CHANNELS 3 Zrotation Yrotation Xrotation
										End Site
										{
											OFFSET 0.60712 -0.00000 0.00000
										}
									}
								}
								JOINT LThumb
								{
									OFFSET 0 0 0
									CHANNELS 3 Zrotation Yrotation Xrotation
									End Site
									{
										OFFSET 0.61639 -0.00000 0.61639
									}
								}
							}
						}
					}
				}
				JOINT RightShoulder
				{
					OFFSET 0 0 0
					CHANNELS 3 Zrotation Yrotation Xrotation
					JOINT RightArm
					{
						OFFSET -2.60909 1.35448 0.21802
						CHANNELS 3 Zrotation Yrotation Xrotation
						JOINT RightForeArm
						{
							OFFSET -4.52172 -0.00000 -0.00000
							CHANNELS 3 Zrotation Yrotation Xrotation
							JOINT RightHand
							{
								OFFSET -2.89140 -0.00000 0.00000
								CHANNELS 3 Zrotation Yrotation Xrotation
								JOINT RightFingerBase
								{
									OFFSET 0 0 0
									CHANNELS 3 Zrotation Yrotation Xrotation
									JOINT RightHandIndex1
									{
										OFFSET -0.68054 -0.00000 0.00000
										CHANNELS 3 Zrotation Yrotation Xrotation
										End Site
										{
											OFFSET -0.54867 -0.00000 0.00000
										}
									}
								}
								JOINT RThumb
								{
									OFFSET 0 0 0
									CHANNELS 3 Zrotation Yrotation Xrotation
									End Site
									{
										OFFSET -0.55705 -0.00000 0.55705
									}
								}
							}
						}
					}
				}
			}
		}
	}
}
MOTION
Frames: 6
Frame Time: .0083333
8.7727 15.2359 -37.3306 -1.8757 -4.2696 -2.4184 0.0000 0.0000 0.0000 -14.5116 -23.5614 -14.2856 2.7905 10.3479 30.1110 0.2690 -9.3205 -10.5624 2.3752 -9.6074 -27.7144 0.0000 0.0000 0.0000 35.1499 9.5695 2.0562 -1.3214 -7.2803 20.5486 0.9572 -27.1458 -32.6309 -1.1103 -6.6944 18.8132 1.3839 1.2561 9.7659 1.2662 1.8633 1.5973 0.2957 0.9111 -3.8106 0.4155 -0.0084 -5.2400 -7.8688 0.4737 5.6398 -2.6355 -0.0169 2.7722 -0.0000 -0.0000 0.0000 -87.1000 3.2732 33.6717 21.2888 -32.1639 -6.2030 -0.0000 -0.0000 12.8578 7.8659 -32.9484 -4.2972 -7.1250 0.0000 -0.0000 -13.5007 -2.4122 14.4577 -0.0000 -0.0000 0.0000 81.9330 -5.2395 56.0547 -17.6151 27.6615 -4.3691 0.0000 0.0000 9.6077 -11.5010 -51.8132 9.0863 7.1250 -0.0000 -0.0000 62.6757 -75.1430 -48.3437
8.7740 15.2368 -37.3340 -1.8735 -4.3669 -2.4159 0.0000 0.0000 0.0000 -14.5059 -23.5026 -14.2907 2.7857 10.3398 30.0843 0.2774 -9.2553 -10.6457 2.4404 -9.7287 -28.1026 0.0000 0.0000 0.0000 35.1709 9.7210 2.1014 -1.3234 -7.2857 20.5646 0.9275 -27.1423 -32.8149 -1.1536 -6.8195 19.1818 1.4437 1.2582 9.7493 1.2400 1.8705 1.6086 0.2347 0.9139 -3.7867 0.3755 -0.0079 -5.1990 -7.7826 0.4660 5.5672 -2.5971 -0.0161 2.7380 -0.0000 0.0000 0.0000 -87.0377 3.2397 33.8459 21.3553 -32.2407 -6.2384 -0.0000 -0.0000 12.8806 8.3394 -33.1846 -4.5872 -7.1250 0.0000 -0.0000 -13.2543 -2.7018 14.2438 -0.0000 0.0000 0.0000 82.0831 -5.0131 56.0521 -17.4854 27.4933 -4.3090 0.0000 0.0000 9.3982 -11.1636 -52.1099 8.8523 7.1250 -0.0000 -0.0000 63.9185 -75.1215 -49.4286
8.7760 15.2367 -37.3347 -1.8924 -4.4965 -2.3804 0.0000 0.0000 0.0000 -14.4597 -23.4763 -14.3058 2.7845 10.3378 30.0776 0.2901 -9.1552 -10.7697 2.4596 -9.7641 -28.2161 0.0000 0.0000 0.0000 35.2155 9.9195 2.1534 -1.3212 -7.2797 20.5466 0.8738 -27.0702 -33.0353 -1.2816 -7.1741 20.2321 1.5400 1.2655 9.5521 1.2192 1.8830 1.6836 0.1633 0.9204 -3.5953 0.4178 0.0129 -5.2288 -7.8062 0.4887 5.5081 -2.6114 -0.0039 2.7255 -0.0000 -0.0000 0.0000 -87.0217 3.0411 33.8703 21.3242 -32.2048 -6.2218 -0.0000 -0.0000 13.1089 8.6547 -33.2623 -4.7722 -7.1250 0.0000 -0.0000 -13.0858 -2.8184 14.0785 -0.0000 -0.0000 0.0000 82.1737 -4.8376 55.9954 -17.4465 27.4426 -4.2911 0.0000 0.0000 9.5489 -10.9569 -52.0721 8.6824 7.1250 -0.0000 -0.0000 63.8936 -75.0295 -49.3073
8.7776 15.2374 -37.3369 -1.9471 -4.6221 -2.3048 0.0000 0.0000 0.0000 -14.3453 -23.4658 -14.3792 2.7841 10.3371 30.0754 0.2901 -9.0314 -10.7238 2.4627 -9.7697 -28.2342 0.0000 0.0000 0.0000 35.2703 10.0526 2.1150 -1.3189 -7.2736 20.5286 0.8259 -26.9501 -33.1381 -1.3743 -7.4188 20.9621 1.6441 1.2611 9.4149 1.2381 1.8846 1.7012 0.1278 0.9209 -3.4981 0.4414 0.0632 -5.3240 -7.8618 0.5625 5.5470 -2.6336 0.0286 2.7611 0.0000 -0.0000 0.0000 -87.0624 2.8357 33.9153 21.3428 -32.2264 -6.2318 -0.0000 -0.0000 12.8998 8.0664 -32.6959 -4.3778 -7.1250 0.0000 -0.0000 -13.3749 -2.1923 14.2653 0.0000 -0.0000 0.0000 82.2022 -4.7842 55.9694 -17.4254 27.4151 -4.2814 0.0000 0.0000 9.8385 -11.0477 -51.8699 8.7314 7.1250 -0.0000 -0.0000 63.1289 -74.9913 -48.5843
8.7785 15.2382 -37.3402 -1.9763 -4.7450 -2.2876 0.0000 0.0000 0.0000 -14.2884 -23.4064 -14.4058 2.7824 10.3341 30.0657 0.2893 -8.9181 -10.6714 2.5415 -9.9130 -28.6955 0.0000 0.0000 0.0000 35.2889 10.0705 2.0870 -1.3190 -7.2741 20.5299 0.8409 -26.9308 -33.0121 -1.2797 -7.1689 20.2167 1.7110 1.2681 9.4424 1.2522 1.9022 1.6783 0.1018 0.9286 -3.5353 0.4315 0.1082 -5.4116 -7.8749 0.6321 5.6315 -2.6360 0.0585 2.8097 -0.0000 -0.0000 0.0000 -87.0382 2.7514 34.0899 21.3368 -32.2194 -6.2286 -0.0000 -0.0000 12.7796 8.3964 -32.8266 -4.5748 -7.1250 0.0000 -0.0000 -13.2003 -2.3613 14.1066 -0.0000 -0.0000 0.0000 82.2513 -4.7961 55.9358 -17.3916 27.3711 -4.2658 0.0000 0.0000 10.0154 -11.2802 -51.6172 8.8864 7.1250 -0.0000 -0.0000 62.1083 -74.9853 -47.6728
8.7793 15.2396 -37.3439 -1.9256 -4.8865 -2.3041 0.0000 0.0000 0.0000 -14.3418 -23.3109 -14.3908 2.7795 10.3292 30.0495 0.3062 -8.7769 -10.8394 2.6872 -10.1706 -29.5308 0.0000 0.0000 0.0000 35.2215 10.0721 2.0887 -1.3200 -7.2766 20.5375 0.8638 -26.8985 -32.8141 -1.2382 -7.0561 19.8817 1.7123 1.3024 9.4410 1.2285 1.9462 1.7017 0.0715 0.9506 -3.5090 0.4499 0.1337 -5.4623 -7.8956 0.6696 5.6666 -2.6462 0.0750 2.8335 -0.0000 0.0000 0.0000 -86.9925 2.6677 34.2300 21.3579 -32.2437 -6.2398 -0.0000 -0.0000 12.8464 8.7601 -33.0673 -4.8060 -7.1250 0.0000 -0.0000 -13.0148 -2.6425 13.9596 -0.0000 0.0000 0.0000 82.3371 -4.7337 55.8943 -17.3633 27.3343 -4.2528 0.0000 0.0000 10.0967 -11.4255 -51.8161 9.0263 7.1250 -0.0000 -0.0000 62.7282 -75.1153 -48.3608
